<svg id="Layer_1" data-name="Layer 1" xmlns="http://www.w3.org/2000/svg" viewBox="0 0 908.21 567.34"><defs><style>.cls-1{fill:#231f20;}</style></defs><title>AM-PM</title><path class="cls-1" d="M161.86,644.41h-6.27v11.07a2.83,2.83,0,0,1-5.66,0V625.39a2.8,2.8,0,0,1,2.8-2.8h9.13a10.91,10.91,0,1,1,0,21.83Zm-6.27-5.66h6.27a5.25,5.25,0,1,0,0-10.5h-6.27Z" transform="translate(-146.16 -90.94)"/><path class="cls-1" d="M210.35,625.39v30.09a2.87,2.87,0,0,1-2.86,2.8,2.8,2.8,0,0,1-2.8-2.8V634l-7.34,10.2a2.78,2.78,0,0,1-2.29,1.17H195a2.88,2.88,0,0,1-2.35-1.17L185.32,634v21.47a2.83,2.83,0,0,1-5.66,0V625.39a2.83,2.83,0,0,1,2.8-2.8h.15a2.76,2.76,0,0,1,2.24,1.17L195,637.83l10.15-14.08a2.78,2.78,0,0,1,2.29-1.17h.05A2.91,2.91,0,0,1,210.35,625.39Z" transform="translate(-146.16 -90.94)"/><path class="cls-1" d="M166.52,118.22H154.13l-2.5,6.63a2.86,2.86,0,0,1-2.65,1.78,3,3,0,0,1-1-.15,2.89,2.89,0,0,1-1.68-3.67l11.27-30A2.85,2.85,0,0,1,160.3,91a2.81,2.81,0,0,1,2.7,1.78l11.27,30a2.89,2.89,0,0,1-1.68,3.67,2.86,2.86,0,0,1-3.57-1.63Zm-2.09-5.61-4.13-11-4.13,11Z" transform="translate(-146.16 -90.94)"/><path class="cls-1" d="M212,93.74v30.09a2.87,2.87,0,0,1-2.86,2.8,2.8,2.8,0,0,1-2.8-2.8V102.36L199,112.56a2.78,2.78,0,0,1-2.29,1.17h-.1a2.87,2.87,0,0,1-2.35-1.17l-7.29-10.2v21.47a2.83,2.83,0,0,1-5.66,0V93.74a2.83,2.83,0,0,1,2.81-2.8h.15a2.76,2.76,0,0,1,2.24,1.17l10.15,14.07,10.15-14.07a2.78,2.78,0,0,1,2.29-1.17h.05A2.91,2.91,0,0,1,212,93.74Z" transform="translate(-146.16 -90.94)"/><rect class="cls-1" x="32.34" y="513.14" width="5" height="5"/><path class="cls-1" d="M183.51,593.87h-5v-10.2h5Zm0-20.41h-5v-10.2h5Zm0-20.41h-5v-10.2h5Zm0-20.41h-5v-10.2h5Zm0-20.41h-5V502h5Zm0-20.41h-5v-10.2h5Zm0-20.41h-5v-10.2h5Zm0-20.41h-5v-10.2h5Zm0-20.41h-5v-10.2h5Zm0-20.41h-5V400h5Zm0-20.41h-5v-10.2h5Zm0-20.41h-5V359.2h5Zm0-20.41h-5V338.8h5Zm0-20.41h-5v-10.2h5Zm0-20.41h-5V298h5Zm0-20.41h-5v-10.2h5Zm0-20.41h-5v-10.2h5Zm0-20.41h-5v-10.2h5Zm0-20.41h-5v-10.2h5Zm0-20.41h-5V196h5Zm0-20.41h-5v-10.2h5Zm0-20.41h-5v-10.2h5Z" transform="translate(-146.16 -90.94)"/><rect class="cls-1" x="32.34" y="49" width="5" height="5"/><path class="cls-1" d="M1033.6,645.59H229v-5H1033.6a15.79,15.79,0,0,0,15.77-15.77V128.45a15.79,15.79,0,0,0-15.77-15.77H229v-5H1033.6a20.79,20.79,0,0,1,20.77,20.77V624.82A20.79,20.79,0,0,1,1033.6,645.59Z" transform="translate(-146.16 -90.94)"/></svg>